<svg width="78" height="88" viewBox="0 0 78 88" fill="none" xmlns="http://www.w3.org/2000/svg">
<path fill-rule="evenodd" clip-rule="evenodd" d="M47.0171 12.9577C42.2799 10.9853 37.1547 10.1349 32.0383 10.4719C26.9217 10.809 21.9509 12.3246 17.5104 14.9015L13.03 17.5015L7.85656 8.49487L12.3369 5.89487C18.152 2.52039 24.6613 0.535584 31.3615 0.0942243C38.0618 -0.347216 44.7731 0.766544 50.9767 3.34926C57.1801 5.93207 62.7093 9.91455 67.1367 14.9888C71.5636 20.0629 74.7703 26.0929 76.5086 32.612C78.2461 39.131 78.4689 45.9646 77.1589 52.584C75.8488 59.2034 73.0416 65.4312 68.9538 70.7856C64.8659 76.14 59.6081 80.4776 53.5859 83.4624C47.5638 86.4472 39.7961 88 34.2246 88C28.6529 88 25.3996 87.16 21.1272 85.3816C16.975 83.6528 13.2022 81.1192 10.0241 77.9248C6.84606 74.7304 4.32516 70.9376 2.60519 66.764C0.885297 62.5907 0 58.1174 0 53.6C0 49.0826 0.885297 44.6093 2.60519 40.4357C4.32516 36.2621 6.84606 32.4698 10.0241 29.2755C13.2022 26.0812 16.975 23.5473 21.1272 21.8186C25.2795 20.0897 29.73 19.2 34.2243 19.2C38.7188 19.2 43.1691 20.0897 47.3214 21.8186C51.4737 23.5473 55.2466 26.0812 58.4246 29.2755C61.6026 32.4698 64.1234 36.2621 65.8433 40.4357C66.5835 42.231 67.1685 44.0816 67.5959 45.9674C67.8045 42.3874 67.4423 38.7868 66.5143 35.3037C65.1867 30.3254 62.7382 25.7208 59.3574 21.846C55.9766 17.9711 51.7543 14.9299 47.0171 12.9577ZM13.5603 65.6248C14.1471 54.4444 23.3525 45.5602 34.6223 45.5602C45.4564 45.5602 54.3827 53.7708 55.578 64.3392C55.8314 63.8302 56.0669 63.3117 56.2842 62.7844C57.4842 59.8726 58.1018 56.7518 58.1018 53.6C58.1018 50.4483 57.4842 47.3274 56.2842 44.4156C55.0843 41.5038 53.3255 38.8581 51.1082 36.6294C48.8911 34.4008 46.2588 32.633 43.3618 31.4269C40.4649 30.2208 37.36 29.6 34.2243 29.6C31.0888 29.6 27.9838 30.2208 25.0868 31.4269C22.1899 32.633 19.5577 34.4008 17.3404 36.6294C15.1233 38.8581 13.3644 41.5038 12.1644 44.4156C10.9645 47.3274 10.3469 50.4482 10.3469 53.6C10.3469 56.7518 10.9645 59.8726 12.1644 62.7844C12.5679 63.7633 13.0344 64.712 13.5603 65.6248ZM45.3671 66.76C45.3671 72.7248 40.5566 77.56 34.6223 77.56C28.6881 77.56 23.8774 72.7248 23.8774 66.76C23.8774 60.7955 28.6881 55.9602 34.6223 55.9602C40.5566 55.9602 45.3671 60.7955 45.3671 66.76Z" fill="white"/>
</svg>
